Sprint_05400001_forces_filt100Hz.mot
version=1
nRows=24
nColumns=19
inDegrees=yes
endheader
time	R_ground_force_vx	R_ground_force_vy	R_ground_force_vz	R_ground_force_px	R_ground_force_py	R_ground_force_pz	R_ground_torque_x	R_ground_torque_y	R_ground_torque_z	L_ground_force_vx	L_ground_force_vy	L_ground_force_vz	L_ground_force_px	L_ground_force_py	L_ground_force_pz	L_ground_torque_x	L_ground_torque_y	L_ground_torque_z	
2.714500	  0.000000	  0.000000	  0.000000	  0.137913	  0.000000	 -0.240023	  0.000000	  0.000000	  0.000000	  0.000000	  0.000000	  0.000000	  1.224056	  0.000000	 -0.378683	  0.000000	  0.000000	  0.000000
2.715000	  0.000000	  0.000000	  0.000000	  0.139420	  0.000000	 -0.239888	  0.000000	  0.000000	  0.000000	  0.000000	  0.000000	  0.000000	  1.222273	  0.000000	 -0.378184	  0.000000	  0.000000	  0.000000
2.715500	  0.000000	  0.000000	  0.000000	  0.141022	  0.000000	 -0.239818	  0.000000	  0.000000	  0.000000	  0.000000	  0.000000	  0.000000	  1.220244	  0.000000	 -0.377574	  0.000000	  0.000000	  0.000000
2.716000	  0.000000	  0.000000	  0.000000	  0.142624	  0.000000	 -0.239748	  0.000000	  0.000000	  0.000000	  0.000000	  0.000000	  0.000000	  1.218215	  0.000000	 -0.376964	  0.000000	  0.000000	  0.000000
2.716500	  0.000000	  0.000000	  0.000000	  0.144226	  0.000000	 -0.239678	  0.000000	  0.000000	  0.000000	  0.000000	  0.000000	  0.000000	  1.216186	  0.000000	 -0.376355	  0.000000	  0.000000	  0.000000
2.717000	  0.000000	  0.000000	  0.000000	  0.145828	  0.000000	 -0.239608	  0.000000	  0.000000	  0.000000	  0.000000	  0.000000	  0.000000	  1.214157	  0.000000	 -0.375745	  0.000000	  0.000000	  0.000000
2.717500	  0.000000	  0.000000	  0.000000	  0.147429	  0.000000	 -0.239538	  0.000000	  0.000000	  0.000000	  0.000000	  0.000000	  0.000000	  1.212128	  0.000000	 -0.375135	  0.000000	  0.000000	  0.000000
2.718000	  0.000000	  0.000000	  0.000000	  0.149031	  0.000000	 -0.239468	  0.000000	  0.000000	  0.000000	  0.000000	  0.000000	  0.000000	  1.210099	  0.000000	 -0.374525	  0.000000	  0.000000	  0.000000
2.718500	  0.000000	  0.000000	  0.000000	  0.150633	  0.000000	 -0.239398	  0.000000	  0.000000	  0.000000	  0.000000	  0.000000	  0.000000	  1.208070	  0.000000	 -0.373916	  0.000000	  0.000000	  0.000000
2.719000	  0.000000	  0.000000	  0.000000	  0.152235	  0.000000	 -0.239328	  0.000000	  0.000000	  0.000000	  0.000000	  0.000000	  0.000000	  1.192589	 -0.000000	 -0.385789	  0.000000	  0.000000	  0.000000
2.719500	  0.000000	  0.000000	  0.000000	  0.153837	  0.000000	 -0.239258	  0.000000	  0.000000	  0.000000	  0.000000	  0.000000	  0.000000	  1.177107	 -0.000000	 -0.397662	  0.000000	  0.000000	  0.000000
2.720000	  0.000000	  0.000000	  0.000000	  0.155439	  0.000000	 -0.239187	  0.000000	  0.000000	  0.000000	  0.000000	  0.000000	  0.000000	  1.161625	 -0.000000	 -0.409536	  0.000000	  0.000000	  0.000000
2.720500	  0.000000	  0.000000	  0.000000	  0.157156	  0.000000	 -0.239054	  0.000000	  0.000000	  0.000000	-44.232106	 26.977916	-65.521051	  1.146143	 -0.000000	 -0.421409	  0.000000	-26.684683	  0.000000
2.721000	  0.000000	  0.000000	  0.000000	  0.158872	  0.000000	 -0.238921	  0.000000	  0.000000	  0.000000	-59.330169	 58.237603	-75.900396	  1.130661	  0.000000	 -0.433282	  0.000000	-31.297645	  0.000000
2.721500	  0.000000	  0.000000	  0.000000	  0.160589	  0.000000	 -0.238788	  0.000000	  0.000000	  0.000000	-76.405781	 99.683297	-86.090340	  1.115180	  0.000000	 -0.445156	  0.000000	-35.871355	  0.000000
2.722000	  0.000000	  0.000000	  0.000000	  0.162306	  0.000000	 -0.238655	  0.000000	  0.000000	  0.000000	-95.185871	151.819742	-96.045834	  1.099698	  0.000000	 -0.457029	  0.000000	-40.279481	  0.000000
2.722500	  0.000000	  0.000000	  0.000000	  0.164023	  0.000000	 -0.238522	  0.000000	  0.000000	  0.000000	-115.372361	214.094855	-105.705521	  1.084216	  0.000000	 -0.468903	  0.000000	-44.428790	  0.000000
2.723000	  0.000000	  0.000000	  0.000000	  0.165740	  0.000000	 -0.238389	  0.000000	  0.000000	  0.000000	-136.700360	284.626717	-114.946232	  1.068734	  0.000000	 -0.480776	  0.000000	-48.269451	  0.000000
2.723500	  0.000000	  0.000000	  0.000000	  0.167457	  0.000000	 -0.238255	  0.000000	  0.000000	  0.000000	-158.985914	360.580861	-123.540915	  1.056806	  0.000000	 -0.478197	  0.000000	-51.792007	  0.000000
2.724000	  0.000000	  0.000000	  0.000000	  0.169173	  0.000000	 -0.238122	  0.000000	  0.000000	  0.000000	-182.151517	439.052138	-131.130848	  1.046357	  0.000000	 -0.475588	  0.000000	-55.010754	  0.000000
2.724500	  0.000000	  0.000000	  0.000000	  0.170890	  0.000000	 -0.237989	  0.000000	  0.000000	  0.000000	-206.220705	517.655357	-137.223104	  1.037156	  0.000000	 -0.472929	  0.000000	-57.934078	  0.000000
2.725000	  0.000000	  0.000000	  0.000000	  0.172607	  0.000000	 -0.237856	  0.000000	  0.000000	  0.000000	-231.281851	594.604426	-141.218762	  1.028955	  0.000000	 -0.470138	  0.000000	-60.527411	  0.000000
2.725500	  0.000000	  0.000000	  0.000000	  0.174398	  0.000000	 -0.237722	  0.000000	  0.000000	  0.000000	-257.429297	668.628240	-142.472363	  1.021477	  0.000000	 -0.467089	  0.000000	-62.678458	  0.000000
2.726000	  0.000000	  0.000000	  0.000000	  0.176190	  0.000000	 -0.237588	  0.000000	  0.000000	  0.000000	-284.692263	738.893625	-140.373993	  1.014433	  0.000000	 -0.463641	  0.000000	-64.176452	  0.000000
